NoteOn Events (time_stamp, midi_note, velocity):
0.60810825,45,71
0.810811,72,127
0.810811,45,83
1.01351375,45,83
1.2162165,71,127
1.2162165,45,83
1.61993281042,53,92
1.621622,69,127
1.621622,41,100
1.621622,67,92
1.621622,72,92
1.621622,65,83
1.621622,53,100
1.621622,36,100
1.621622,49,96
1.95777072708,60,86
1.95945991667,67,127
1.95945991667,42,62
2.36317622708,67,86
2.36486541667,67,127
2.36486541667,65,86
2.36486541667,72,92
2.36486541667,40,100
2.36486541667,42,96
2.77027091667,64,127
2.77027091667,41,92
2.77027091667,65,80
2.77027091667,42,89
2.77027091667,36,92
2.97297366667,67,127
3.07601423125,36,100
3.07601423125,72,83
3.07601423125,67,92
3.07601423125,64,71
3.07601423125,60,83
3.07601423125,48,92
3.07601423125,36,105
3.07601423125,42,96
3.466217025,65,77
3.466217025,42,89
3.668919775,67,65
3.86993333542,60,96
3.871622525,72,127
3.871622525,72,96
3.871622525,50,100
3.871622525,42,115
3.871622525,40,115
4.07263608542,64,96
4.074325275,67,75
4.27533883542,67,80
4.277028025,71,127
4.277028025,36,80
4.277028025,65,86
4.277028025,52,92
4.277028025,42,105
4.47804158542,69,86
4.479730775,67,61
4.60979837292,67,96
4.60979837292,65,92
4.60979837292,72,96
4.6114875625,69,127
4.6114875625,41,100
4.6114875625,53,100
4.6114875625,53,105
4.6114875625,36,100
4.6114875625,42,96
4.94256872083,67,127
4.94256872083,60,83
4.94256872083,42,96
5.34628503125,60,96
5.34628503125,72,92
5.34628503125,65,96
5.34797422083,67,127
5.34797422083,67,96
5.34797422083,40,122
5.34797422083,42,105
5.75169053125,69,96
5.75337972083,64,127
5.75337972083,41,96
5.75337972083,60,86
5.75337972083,42,73
5.75337972083,36,92
5.95608247083,62,127
6.05912303542,64,127
6.05912303542,48,92
6.05912303542,60,83
6.05912303542,60,92
6.05912303542,42,105
6.05912303542,36,105
6.41892041667,53,80
6.41892041667,42,89
6.82432591667,76,127
6.82432591667,60,83
6.82432591667,64,105
6.82432591667,72,100
6.82432591667,62,77
6.82432591667,40,122
6.82432591667,42,105
7.02702866667,67,55
7.22973141667,79,127
7.22973141667,48,83
7.22973141667,72,92
7.22973141667,67,100
7.22973141667,65,69
7.22973141667,42,89
7.22973141667,36,77
7.43243416667,62,71
7.5912179875,77,127
7.5912179875,41,105
7.5912179875,53,71
7.5912179875,53,96
7.5912179875,42,105
7.5912179875,36,100
7.83277209792,76,127
7.83277209792,60,80
7.83277209792,42,89
8.03547484792,74,127
8.23817759792,72,100
8.23817759792,67,115
8.23817759792,72,80
8.23817759792,40,122
8.23817759792,42,96
8.64358309792,41,83
8.64358309792,65,86
8.64358309792,67,86
8.64358309792,42,96
8.64358309792,36,80
8.95608317083,76,127
8.95608317083,36,96
8.95608317083,67,100
8.95608317083,72,96
8.95608317083,60,92
8.95608317083,60,86
8.95608317083,60,86
8.95608317083,42,105
8.95608317083,36,105
9.26520486458,74,127
9.26520486458,65,75
9.26520486458,59,92
9.26520486458,42,69
9.46790761458,72,127
9.46790761458,67,65
9.53885357708,45,100
9.53885357708,72,96
9.53885357708,69,96
9.53885357708,64,92
9.53885357708,57,86
9.53885357708,57,100
9.53885357708,40,115
9.53885357708,42,105
9.73479956875,64,71
9.93750231875,76,127
9.93750231875,69,75
9.93750231875,52,92
9.93750231875,36,75
9.93750231875,42,96
10.1402050688,72,96
10.1672321021,74,127
10.1672321021,38,100
10.1672321021,74,86
10.1672321021,69,86
10.1672321021,65,86
10.1672321021,62,92
10.1672321021,50,96
10.1672321021,42,96
10.1672321021,36,115
10.5219619146,65,80
10.5219619146,42,83
10.9273674146,69,127
10.9273674146,72,96
10.9273674146,65,96
10.9273674146,60,92
10.9273674146,74,96
10.9273674146,42,115
10.9273674146,40,105
11.3327729146,69,127
11.3327729146,38,83
11.3327729146,69,83
11.3327729146,69,100
11.3327729146,42,96
11.3327729146,36,71
11.5354756646,71,127
11.6233135229,43,96
11.6233135229,67,92
11.6233135229,74,96
11.6233135229,55,96
11.6233135229,55,100
11.6233135229,36,105
11.6233135229,42,96
11.9712865771,42,89
12.1739893271,59,65
12.3766920771,72,127
12.3766920771,59,100
12.3766920771,67,100
12.3766920771,62,86
12.3766920771,42,105
12.3766920771,40,122
12.5793948271,67,92
12.7820975771,71,127
12.7820975771,43,92
12.7820975771,69,96
12.7820975771,60,86
12.7820975771,36,80
12.7820975771,42,105
12.9848003271,71,77
13.1182463042,69,127
13.1182463042,41,100
13.1182463042,72,100
13.1182463042,67,92
13.1182463042,65,92
13.1182463042,65,100
13.1182463042,60,92
13.1182463042,53,100
13.1182463042,36,105
13.1182463042,42,105
13.4662193583,67,127
13.4662193583,60,83
13.4662193583,42,96
13.6689221083,65,64
13.6689221083,67,52
13.8716248583,67,127
13.8716248583,72,100
13.8716248583,60,92
13.8716248583,65,92
13.8716248583,67,96
13.8716248583,65,96
13.8716248583,60,96
13.8716248583,42,105
13.8716248583,40,115
14.2770303583,64,127
14.2770303583,41,86
14.2770303583,69,86
14.2770303583,42,105
14.2770303583,36,83
14.4797331083,67,127
14.5557466396,36,96
14.5557466396,64,86
14.5557466396,67,92
14.5557466396,67,92
14.5557466396,72,86
14.5557466396,64,80
14.5557466396,48,86
14.5557466396,36,105
14.5557466396,42,105
14.8547331958,42,55
15.0574359458,72,63
15.0574359458,64,61
15.0574359458,67,71
15.2601386958,72,127
15.2601386958,60,83
15.2601386958,64,77
15.2601386958,72,83
15.2601386958,67,86
15.2601386958,42,96
15.2601386958,40,115
15.6655441958,71,127
15.6655441958,72,86
15.6655441958,64,92
15.6655441958,72,77
15.6655441958,64,80
15.6655441958,67,83
15.6655441958,36,92
15.6655441958,42,89
15.9189226333,69,127
15.9189226333,41,100
15.9189226333,65,86
15.9189226333,67,92
15.9189226333,72,92
15.9189226333,72,86
15.9189226333,65,83
15.9189226333,67,96
15.9189226333,53,92
15.9189226333,42,105
15.9189226333,36,92
16.2550713604,67,127
16.2550713604,67,60
16.2550713604,65,54
16.2550713604,72,54
16.2550713604,42,60
16.4577741104,67,69
16.4577741104,72,75
16.4577741104,65,58
16.6604768604,79,127
16.6604768604,60,86
16.6604768604,65,96
16.6604768604,72,92
16.6604768604,67,96
16.6604768604,65,77
16.6604768604,72,92
16.6604768604,40,115
16.6604768604,42,83
17.0658823604,77,127
17.0658823604,41,100
17.0658823604,69,80
17.0658823604,67,86
17.0658823604,72,83
17.0658823604,42,89
17.0658823604,36,80
17.2685851104,76,127
17.2685851104,67,71
17.3783824333,36,83
17.3783824333,64,80
17.3783824333,67,83
17.3783824333,67,92
17.3783824333,72,86
17.3783824333,64,86
17.3783824333,48,80
17.3783824333,36,105
17.3783824333,42,96
17.6993284542,42,83
17.9020312042,67,71
17.9020312042,72,61
18.1047339542,76,127
18.1047339542,60,96
18.1047339542,72,92
18.1047339542,67,86
18.1047339542,50,92
18.1047339542,40,122
18.1047339542,42,105
18.3074367042,64,96
18.5101394542,79,127
18.5101394542,67,92
18.5101394542,72,83
18.5101394542,67,80
18.5101394542,52,96
18.5101394542,42,96
18.5101394542,36,80
18.7128422042,72,80
18.8581125083,77,127
18.8581125083,41,100
18.8581125083,65,83
18.8581125083,65,83
18.8581125083,67,86
18.8581125083,72,83
18.8581125083,53,96
18.8581125083,36,100
18.8581125083,42,105
19.195950425,76,127
19.195950425,42,67
19.398653175,74,127
19.398653175,67,63
19.398653175,72,69
19.601355925,72,92
19.601355925,65,96
19.601355925,60,83
19.601355925,67,86
19.601355925,72,83
19.601355925,42,105
19.601355925,40,115
20.006761425,41,96
20.006761425,67,83
20.006761425,67,75
20.006761425,36,71
20.006761425,42,89
20.412166925,76,127
20.412166925,36,96
20.412166925,72,100
20.412166925,67,105
20.412166925,72,83
20.412166925,67,83
20.412166925,64,86
20.412166925,48,92
20.412166925,42,96
20.412166925,36,100
20.817572425,74,127
20.817572425,67,60
20.817572425,72,52
20.817572425,42,96
21.020275175,72,127
21.020275175,67,71
21.020275175,72,60
21.1706130479,45,96
21.1706130479,69,92
21.1706130479,72,86
21.1706130479,64,86
21.1706130479,72,86
21.1706130479,67,96
21.1706130479,50,92
21.1706130479,42,96
21.1706130479,40,115
21.52703205,76,127
21.52703205,64,92
21.52703205,36,80
21.52703205,42,96
21.7297348,67,61
21.8834510521,74,92
21.8834510521,69,100
21.8834510521,65,75
21.8851402417,74,127
21.8851402417,38,92
21.8851402417,65,96
21.8851402417,69,96
21.8851402417,50,92
21.8851402417,42,105
21.8851402417,36,105
22.2331132958,42,89
22.6385187958,40,115
22.6385187958,42,105
23.0422351063,74,86
23.0422351063,67,83
23.0422351063,69,96
23.0439242958,43,92
23.0439242958,71,86
23.0439242958,67,92
23.0439242958,62,80
23.0439242958,55,92
23.0439242958,36,86
23.0439242958,42,67
23.412167625,36,105
23.412167625,42,96
23.7314244563,42,89
24.1368299563,42,105
24.1368299563,40,115
24.5422354563,72,127
24.5422354563,42,96
24.5422354563,36,83
24.7466273958,72,127
24.7466273958,36,100
24.7466273958,72,86
24.7466273958,64,75
24.7466273958,67,83
24.7466273958,67,86
24.7466273958,72,83
24.7466273958,64,65
24.7466273958,65,71
24.7466273958,60,77
24.7466273958,42,105
24.7466273958,36,100
NoteOff Events (time_stamp, midi_note, velocity):
0.717905572917,45,0
0.930743460417,45,0
1.09121647083,45,0
1.2162165,72,0
1.26858137708,45,0
1.621622,71,0
1.65033822292,49,0
1.75675716667,36,0
1.84628421458,53,0
1.95101396875,65,0
1.9560815375,72,0
1.95945991667,69,0
1.97466262292,67,0
2.00000046667,42,0
2.05574372292,60,0
2.36486541667,67,0
2.4222978625,42,0
2.45439246458,40,0
2.71959522917,67,0
2.77027091667,67,0
2.77027091667,41,0
2.817568225,42,0
2.817568225,36,0
2.95439258125,65,0
2.97297366667,64,0
2.97466285625,72,0
3.07263585208,65,0
3.07601423125,53,0
3.07601423125,41,0
3.13513586667,42,0
3.24662237917,36,0
3.45270350833,64,0
3.5168927125,67,0
3.52196028125,42,0
3.58446029583,60,0
3.59290624375,65,0
3.668919775,67,0
3.7297306,72,0
3.78716304583,67,0
3.871622525,48,0
3.95101443542,42,0
3.96959552083,40,0
3.9831090375,60,0
4.02702796667,72,0
4.074325275,36,0
4.23310909583,64,0
4.27364964583,67,0
4.277028025,72,0
4.277028025,50,0
4.46790644792,42,0
4.51689294583,67,0
4.52702808333,65,0
4.54898754792,67,0
4.55236592708,69,0
4.6114875625,71,0
4.6114875625,52,0
4.6114875625,36,0
4.65878487083,42,0
4.73986597083,36,0
4.86824437917,53,0
4.8750011375,67,0
4.88006870625,72,0
4.88344708542,65,0
4.94256872083,69,0
5.05574442292,42,0
5.10979848958,60,0
5.34797422083,67,0
5.44594721667,40,0
5.52533912708,42,0
5.55067697083,41,0
5.65709591458,60,0
5.67905537917,72,0
5.69256889583,65,0
5.75337972083,67,0
5.78885270208,36,0
5.91554192083,60,0
5.94256895417,42,0
5.95608247083,64,0
6.05912303542,62,0
6.05912303542,41,0
6.05912303542,53,0
6.0810825,67,0
6.08277168958,69,0
6.14358251458,42,0
6.20608252917,36,0
6.2533798375,60,0
6.41892041667,64,0
6.50337989583,42,0
6.77702860833,53,0
6.91385296458,40,0
6.94425837708,62,0
6.94763675625,60,0
6.99155568542,42,0
7.0844611125,64,0
7.08952868125,72,0
7.20101519375,67,0
7.22973141667,48,0
7.22973141667,76,0
7.24493412292,36,0
7.35979901458,42,0
7.44763687292,65,0
7.53716392083,62,0
7.560812575,67,0
7.5709477125,72,0
7.5912179875,60,0
7.5912179875,79,0
7.5912179875,48,0
7.61317745208,42,0
7.63682610625,36,0
7.763515325,53,0
7.83277209792,77,0
7.92398833542,42,0
8.03547484792,76,0
8.1587856875,60,0
8.33615059375,40,0
8.4020289875,42,0
8.44088034792,41,0
8.44088034792,72,0
8.56588037708,72,0
8.61148849583,67,0
8.6756777,36,0
8.73986690417,42,0
8.89189396667,65,0
8.91554262083,67,0
8.95608317083,74,0
8.95608317083,53,0
8.95608317083,41,0
8.98142101458,42,0
9.03378589167,60,0
9.0506777875,36,0
9.21621836667,72,0
9.22635350417,67,0
9.24155621042,60,0
9.26520486458,76,0
9.26520486458,60,0
9.34628596458,42,0
9.425677875,65,0
9.46790761458,74,0
9.47973194167,67,0
9.53885357708,59,0
9.53885357708,36,0
9.63006981458,40,0
9.70777253542,42,0
9.81925904792,57,0
9.8412185125,64,0
9.87331311458,64,0
9.87331311458,69,0
9.90371852708,72,0
9.93750231875,57,0
9.93750231875,72,0
9.96115097292,36,0
10.033786125,42,0
10.1131780354,69,0
10.1672321021,45,0
10.1672321021,52,0
10.1672321021,76,0
10.2077726521,72,0
10.2179077896,42,0
10.3108132167,36,0
10.50000245,65,0
10.5016916396,69,0
10.5084483979,74,0
10.6064213938,42,0
10.7500025083,65,0
10.9273674146,74,0
10.9341241729,62,0
11.0337863583,40,0
11.0337863583,60,0
11.0793944771,42,0
11.1300701646,69,0
11.1925701792,65,0
11.3074350708,72,0
11.331083725,74,0
11.3327729146,38,0
11.3665567063,36,0
11.4324351,42,0
11.5354756646,69,0
11.5709486458,69,0
11.5878405417,69,0
11.6233135229,50,0
11.6233135229,38,0
11.6570973146,42,0
11.7567595,74,0
11.7567595,36,0
11.817570325,67,0
11.8631784438,55,0
12.0574352458,42,0
12.1739893271,71,0
12.3108136833,59,0
12.466219125,40,0
12.4729758833,59,0
12.5574353625,42,0
12.6520299792,67,0
12.7179083729,67,0
12.7280435104,62,0
12.7820975771,43,0
12.7820975771,72,0
12.8091246104,36,0
12.8800705729,42,0
12.9341246396,69,0
13.0388543938,60,0
13.0641922375,71,0
13.1182463042,55,0
13.1182463042,71,0
13.1182463042,43,0
13.1723003708,42,0
13.1773679396,65,0
13.1993274042,60,0
13.2533814708,36,0
13.2820976938,65,0
13.4037193438,67,0
13.4476382729,72,0
13.4662193583,69,0
13.5287193729,60,0
13.5574355958,42,0
13.7043950896,67,0
13.7297329333,65,0
13.8716248583,67,0
13.9679086646,40,0
13.9915573188,60,0
14.0405438167,42,0
14.0743276083,41,0
14.0743276083,60,0
14.1537195188,65,0
14.1570978979,72,0
14.1604762771,67,0
14.1841249313,65,0
14.2770303583,67,0
14.3243276667,36,0
14.3783817333,42,0
14.4797331083,64,0
14.5118277104,69,0
14.5557466396,53,0
14.5557466396,41,0
14.5692601563,42,0
14.6418953083,36,0
14.6807466688,64,0
14.7297331667,72,0
14.7753412854,67,0
14.898652125,42,0
14.9358142958,64,0
14.9459494333,67,0
15.1452738042,67,0
15.1486521833,64,0
15.1537197521,72,0
15.2601386958,67,0
15.3581116917,40,0
15.3750035875,60,0
15.3986522417,42,0
15.4239900854,64,0
15.4408819813,72,0
15.4442603604,67,0
15.6655441958,72,0
15.6942604188,36,0
15.7483144854,42,0
15.7871658458,64,0
15.8141928792,67,0
15.8277063958,72,0
15.8327739646,72,0
15.8344631542,64,0
15.9189226333,36,0
15.9189226333,48,0
15.9189226333,71,0
15.9273685813,42,0
16.0473010417,36,0
16.0793956438,65,0
16.1098010563,67,0
16.1199361938,72,0
16.2550713604,69,0
16.2854767729,42,0
16.3091254271,65,0
16.3158821854,67,0
16.3192605646,72,0
16.4206119396,72,0
16.4577741104,65,0
16.4577741104,67,0
16.4679092479,67,0
16.5253416938,65,0
16.5320984521,72,0
16.5354768313,67,0
16.7195984958,42,0
16.7584498563,40,0
16.7702741833,60,0
16.8631796104,41,0
16.8868282646,65,0
16.90540935,72,0
16.9391931417,72,0
16.9459499,67,0
16.9797336917,65,0
17.0658823604,79,0
17.0945985833,36,0
17.1300715646,42,0
17.2179094229,72,0
17.2432472667,69,0
17.2483148354,67,0
17.2685851104,77,0
17.3175716083,67,0
17.3783824333,53,0
17.3783824333,41,0
17.3783824333,42,0
17.4848013771,64,0
17.4848013771,36,0
17.5523689604,72,0
17.6165581646,67,0
17.6334500604,64,0
17.6520311458,67,0
17.7652068479,42,0
17.9020312042,76,0
17.9712879771,72,0
17.9763555458,67,0
18.1047339542,48,0
18.1638555896,42,0
18.2043961396,40,0
18.2212880354,60,0
18.2989907563,72,0
18.3665583396,67,0
18.5101394542,76,0
18.5101394542,50,0
18.5219637813,64,0
18.5337881083,36,0
18.5743286583,42,0
18.7077746354,72,0
18.7668962708,67,0
18.8581125083,52,0
18.8581125083,36,0
18.8581125083,79,0
18.8733152146,42,0
18.9780449688,65,0
18.9848017271,36,0
19.0287206563,72,0
19.0591260688,67,0
19.1064233771,72,0
19.1537206854,67,0
19.1875044771,65,0
19.195950425,77,0
19.2652071979,42,0
19.398653175,76,0
19.4864910333,67,0
19.5033829292,72,0
19.6959505417,40,0
19.6993289208,60,0
19.7246667646,42,0
19.8496667937,72,0
19.9070992396,67,0
19.9611533063,65,0
20.006761425,41,0
20.0320992688,72,0
20.0337884583,36,0
20.0844641458,42,0
20.1723020042,67,0
20.2956128438,67,0
20.412166925,53,0
20.412166925,74,0
20.412166925,41,0
20.5033831625,42,0
20.5506804708,64,0
20.6199372438,36,0
20.6891940167,67,0
20.6891940167,72,0
20.817572425,76,0
20.8750048708,67,0
20.8868291979,72,0
20.8918967667,42,0
21.020275175,74,0
21.0844643792,72,0
21.0945995167,72,0
21.0996670854,67,0
21.1655454792,67,0
21.1706130479,48,0
21.1706130479,36,0
21.2685860438,40,0
21.3158833521,42,0
21.3750049875,72,0
21.4915590687,67,0
21.52703205,72,0
21.5641942208,36,0
21.6131807188,42,0
21.7449375063,64,0
21.7685861604,64,0
21.7837888667,72,0
21.7854780563,69,0
21.8158834688,67,0
21.8851402417,50,0
21.8851402417,45,0
21.8851402417,76,0
21.9087888958,42,0
22.0202754083,36,0
22.3091268271,42,0
22.3445998083,65,0
22.5473025583,69,0
22.7331134125,40,0
22.7770323417,42,0
22.8057485646,69,0
22.8091269438,74,0
22.8141945125,65,0
23.0439242958,50,0
23.0439242958,38,0
23.0743297083,36,0
23.0777080875,42,0
23.4949379146,42,0
23.5152081896,36,0
23.8125055563,42,0
24.12162725,69,0
24.1250056292,67,0
24.1283840083,74,0
24.1621678,62,0
24.1993299708,71,0
24.2111542979,67,0
24.2314245729,40,0
24.3209516208,42,0
24.5422354563,74,0
24.5658841104,36,0
24.6165597979,42,0
24.7466273958,55,0
24.7466273958,43,0
24.7466273958,72,0
24.8479787708,65,0
24.8631814771,64,0
24.8665598563,72,0
24.8699382354,67,0
24.9087895958,36,0
25.0523707104,42,0
25.4543978313,64,0
25.5591275854,67,0
25.5726411021,72,0
26.3243304667,36,0
26.7297359667,72,0
26.7297359667,60,0
